<?xml version="1.0" encoding="utf-8"?>

<!DOCTYPE svg PUBLIC "-//W3C//DTD SVG 1.1//EN" "http://www.w3.org/Graphics/SVG/1.1/DTD/svg11.dtd">
<svg version="1.1" id="Layer_1" xmlns="http://www.w3.org/2000/svg" xmlns:xlink="http://www.w3.org/1999/xlink" x="0px" y="0px"
	 viewBox="0 0 1631.936 1646.929" enable-background="new 0 0 1631.936 1646.929" xml:space="preserve">
<g>
	<g>
		<path d="M594.595,264.27c15.141-52.904,37.01-2.416-15.881-89.507c-15.513-25.423-17.07-19.999-13.571-24.141
			c18.037-21.103,23.671,10.888-4.989-72.378c-1.345-3.922-5.182-4.234-8.999-3.571c-2.77,0.485-5.349,0.029-8.066,0.381
			c-2.626,0.371-4.036-1.44-4.383-3.695c-0.532-3.529,2.371-2.855,26.722-11.719c3.412-1.2,4.875,0.01,5.712,2.242
			c12.627,33.545,28.227,62.377,29.564,65.272c1.984,4.291,4.753,0.704,8.94,0.342c3.635-0.311,4.056-2.917,3.603-5
			c-2.626-11.906-2.65-24.277-5.656-36.163c-2.783-10.905-4.199-22.141-6.05-33.272c-0.381-2.274,0.756-3.713,3.785-4.462
			c26.487-6.705,27.347-7.821,28.625-4.859c2.078,4.835-3.63,6.545-5.457,7.735c-9.582,6.227-9.525,6.263-7.084,15.739
			c19.517,75.64,7.871,50.653,33.928,56.876c6.114,1.584,1.184-1.286,1.205,78.34c0.025,10.434,11.931,3.257,39.322,17.137
			c7.06,3.504,10.866,6.22,14.792,7.652c2.348-5.797,0.814-12.014,8.422-28.985c5.301-11.923,10.16-14.185,9.381-19.831
			C708.298,31.67,714.412,49.669,699.855,41.329c-2.366-1.38-5.764-1.835-5.333-4.943c0.487-3.559,4.161-3.597,7.3-3.99
			c8.89-1.103,13.395-3.629,21.541,3.548c3.014,2.67,5.313,5.979,5.684,8.729c0.522,3.804,13.032,56.414,15.833,65.067
			c3.389-3.476,7.837-42.116,14.434-67.918c4.797-18.654,12.692-16.618,26.168-17.078c1.902-0.08,4.021-0.268,4.482,1.754
			c0.958,4.209-1.071,4.196-4.18,5.896c-22.002,12.184-17.998,111.062-15.949,136.246c0.72,8.859,9.455,7.662,29.387,33.273
			c5.765,7.477,21.266,31.089,16.637,38.567c-3.339,5.383-3.296,1.527-14.978-14.747c-11.074-15.266-24.304-32.169-33.999-30.735
			c-1.119,0.164-3.007-0.576-2.904,1.768c0.075,1.744-0.204,3.46,2.071,4.486c19.667,8.67,19.748,37.39,7.217,45.773
			c-6.404,4.385-21.648,7.855-31.155-2.405c-6.052-6.489-7.587-20.029-5.691-27.565c3.325-13.356,13.078-12.975,11.584-19.491
			c-1.228-5.351-23.037,0.283-30.348,35.416c-0.673,3.26,1.93,2.007,9.201,9.524c9.668,10.018,7.398,22.715-0.259,16.433
			c-17.232-14.071-15.607-15.753-44.561-24.626c-12.252-3.756-6.87-2.674-27.312,2.13c-4.234,0.995-2.781,6.91-0.032,7.785
			c15.843,5.058,23.003,18.767,23.328,35.11c0.448,23.193-20.509,34.649-36.949,17.848c-8.367-8.588-13.642-21.791-12.284-33.019
			c1.188-9.608,6.956-9.649,4.298-15.942c-0.835-1.981-2.236-0.477-3.31-0.239c-28.393,6.523-26.867,47.154-36.26,50.676
			c-3.146,1.2-7.075-6.496-6.149-12.814c1.344-9.287,7.681-10.339,1.681-16.633c-14.212-14.885-42.763-31.741-53.564-25.495
			c-1.017,0.589-3.074,0.688-1.987,2.772c2.971,5.718,1.752,1.628,9.457,4.032c9.3,2.934,23.55,16.424,16.95,35.907
			c-4.315,13.149-18.886,16.244-30.397,7.618c-22.35-16.793-6.918-34.682-10.543-40.239c-3.755-5.741-14.648,5.823-16.432,33.427
			c-1.295,20.194,5.338,29.816,0.62,35.592c-1.074,1.322-1.844,3.76-4.124,2.517c-4.119-2.218-3.978-8.404-3.481-9.577
			c3.034-7.651-6.818-29.123-3.84-52.388c3.238-25.296,14.387-10.945-18.335-47.087c-16.774-18.516-22.62-18.58-16.886-23.074
			c12.69-9.534,13.131-8.973,11.456-12.051c-8.046-14.8-25.35-35.801-28.382-42.935c-4.002-9.507-17.226-0.257-18.521-8.143
			c-0.28-1.728,0.537-3.602,2.79-4.614c18.227-8.177,16.519-19.097,57.524,48.085c0.515,0.846,0.726,2.301,2.411,1.505
			c1.735-0.82,0.735-1.864,0.356-2.807c-25.872-64.469-27.093-63.094-5.684-73.932c4.506-2.28,10.228,1.505,4.014,8.453
			c-7.855,8.784-0.314,14.695,15.487,56.351c2.592,6.793,5.372,2.654,15.212-0.464c8.992-2.804,11.61-4.238,12.037,1.578
			c1.056,14.423,4.983,28.35,7.685,42.454c5.736,31.486,1.986,4.803,39.952,35.553C580.602,248.616,587.02,256.38,594.595,264.27z"
			/>
	</g>
	<g>
		<path d="M328.603,473.122c-15.178-53.601,28.761-22.569-61.658-66.761c-26.825-13.064-25.183-7.633-24.501-13.029
			c1.867-13.371,9.455-16.688,5.363-19.89c-53.368-41.741-50.857-43.223-58.129-36.451c-2.056,1.908-4.446,2.932-6.544,4.689
			c-2.036,1.704-4.208,0.934-5.714-0.772c-2.099-2.38-0.624-2.669,16.132-24.246c2.199-2.863,4.078-2.638,5.987-1.212
			c31.431,23.403,54.239,35.205,60.197,39.001c3.986,2.536,4.351-1.996,7.65-4.581c2.853-2.254,1.839-4.637,0.326-6.148
			c-8.638-8.587-15.315-18.947-24.269-27.316c-8.234-7.664-15.518-16.361-23.101-24.725c-2.339-2.574-2.471-3.603,16.956-23.317
			c2.788-2.777,3.667-3.04,5.205-2.006c4.38,2.959,0.433,7.398-0.43,9.41c-5.913,13.477-9.081,6.271,42.567,54.062
			c5.481,5.094,3.824-2.146,19.359-7.463c5.883-1.99,0.069-2.13,43.403,65.215c5.625,8.739,9.005-2.857,42.342-6.915
			c7.741-0.983,12.539-0.633,16.607-1.57c-1.034-5.341-9.144-17.759-9.467-39.705c-0.076-5.441,0.414-8.146-2.052-11.018
			c-91.129-106.141-83.717-99.848-90.132-100.206c-8.817-0.506-13.578,3.051-15.329-0.715c-1.496-3.226,1.527-5.293,3.928-7.348
			c2.972-2.56,5.819-5.489,9.124-7.394c5.463-3.11,16.714-1.344,20.399,2.969c2.483,2.892,41.586,40.403,48.608,46.127
			c0.838-4.339-1.546-6.93-2.791-9.872c-31.329-74.62-29.322-69.561-9.169-83.614c1.562-1.094,3.249-2.396,4.733-0.946
			c3.089,3.02,1.369,4.104-0.335,7.211c-11.918,21.813,45.092,103.14,60.432,123.146c5.461,7.124,12.125,1.316,42.74,12.072
			c39.323,13.698,38.658,29.679,30.864,26.154c-70.858-32.192-67.265-7.564-59.083-8.742c8.808-1.233,15.914,1.23,21.457,6.545
			c23.657,22.688,3.076,43.046-12.744,43.485c-13.602,0.319-26.49-15.977-26.272-28.792c0.175-9.378,4.135-10.915,0.389-14.567
			c-3.818-3.72-19.11,13.049-6.351,46.192c0.895,2.303,2.396,1.585,3.635,1.729c25.142,2.714,27.618,16.458,17.982,15.271
			c-14.21-1.782-18.089-2.443-23.535-2.259c-7.993,0.205-34.52,6.373-38.279,10.508c-9.001,10.007-1.546,1.816-10.868,11.826
			c-2.999,3.167,1.442,7.35,4.197,6.583c25.064-6.876,41.414,17.072,43.661,28.119c2.22,11.152-4.245,23.983-18.296,24.649
			c-12.967,0.617-30.091-8.816-36.405-21.944c-4.159-8.638,0.545-11.97-5.052-15.8c-1.772-1.214-2.127,0.82-2.896,1.608
			c-4.128,4.265-6.785,8.946-7.922,14.206c-4.26,19.081,15.351,57.264-1.238,47.427c-5.757-3.426-7.413-8.506-8.014-15.141
			c-0.442-4.872-0.509-6.703-17.875-8.784c-36.348-4.336-51.743,10.249-46.859,13.048c1.316,0.757,2.391,2.417,4.434,0.991
			c17.475-11.763,42.544,7.051,39.913,25.808c-1.343,9.166-10.017,16.36-22.039,15.422c-27.901-2.141-24.482-25.464-30.599-28.219
			c-5.142-2.309-9.362,8.441,1.708,32.203c10.234,21.511,23.096,26.438,22.218,34.45c-0.185,1.694,0.51,4.174-2.093,4.35
			c-4.703,0.335-7.855-4.917-8.101-6.187c-1.104-5.531-5.907-8.736-9.526-12.637c-38.557-41.619-17.801-48.762-39.272-53.149
			c-15.86-3.228-31.074-9.161-47.406-11.063c-9.703-1.105,6.635-18.168,0.361-21.62c-14.765-8.132-40.695-16.51-47.089-20.876
			c-8.501-5.852-14.578,9.11-19.934,3.16c-1.17-1.306-1.5-3.329-0.158-5.402c10.833-16.583,3.302-25.148,74.341,9.464
			c0.891,0.435,1.846,1.543,2.863-0.021c1.047-1.61-0.364-1.953-1.191-2.543c-56.91-40.617-56.769-38.455-44.689-59.201
			c2.533-4.35,9.386-4.291,7.939,4.954c-1.824,11.659,7.703,12.561,43.445,39.104c5.902,4.369,6.065-0.758,12.527-8.609
			c6.46-7.788,7.772-9.463,11.02-5.137c8.735,11.615,19.438,21.149,29.339,31.581c22.081,23.689,3.866,2.866,52.875,8.416
			C308.396,467.516,317.922,470.54,328.603,473.122z"/>
	</g>
	<g>
		<path d="M217.76,792.348c-41.659-35.873,12.849-34.673-88.026-22.685c-29.558,3.575-25.268,7.234-27.591,2.338
			c-5.831-12.028-0.983-19.134-6.287-19.617c-67.425-6.135-66.1-8.782-68.627,0.884c-0.709,2.716-2.181,4.871-3.002,7.482
			c-0.748,2.537-2.98,3.067-5.177,2.449c-2.664-0.757-2.12-2.381-0.991-13.825c1.51-16.562,0.697-19.903,5.803-19.554
			c35.837,2.406,68.438,0.146,71.66,0.127c4.689-0.034,2.603-4.034,4.003-7.992c1.226-3.436-0.971-4.897-3.055-5.346
			c-11.924-2.537-23.192-7.632-35.256-9.813c-11.083-1.979-21.933-5.345-32.816-8.262c-4.122-1.1-2.765-3.96,0.16-20.356
			c2.064-11.463,2.022-13.035,4.782-12.982c5.263,0.109,4.448,6.009,4.772,8.163c1.674,11.291,1.802,11.264,11.414,12.959
			c77.098,13.555,49.178,13.974,65.818-7.353c3.902-5.038-0.026-1.213,71.818,31.311c9.387,4.241,5.83-6.919,31.841-28.718
			c6.117-4.975,10.197-7.308,13.098-10.295c-3.233-3.381-18.505-11.258-29.391-28.241c-6.735-10.394,10.042-2.396-129.898-44.831
			c-9.548-2.91-16.447,11.739-21.106,8.8c-3.064-1.944-1.556-5.352-0.626-8.31c2.671-8.5,2.278-13.75,12.157-18.165
			c3.682-1.642,7.647-2.366,10.304-1.564c3.607,1.079,56.764,11.501,65.783,12.529c-1.616-4.159,0.531-0.436-39.867-29.432
			c-32.547-23.389-28.205-24.226-20.611-42.84c0.716-1.771,1.423-3.784,3.454-3.366c4.226,0.873,3.373,2.721,3.63,6.267
			c1.891,25.201,115.599,75.255,124.81,70.821c62.015-29.846,88.676-9.279,75.088-7.279c-64.303,9.558-62.179,23.379-59.387,24.506
			c5.163,2.089,3.301,0.119,9.68-3.39c15.874-8.855,49.93,1.976,37.186,32.147c-6.694,15.421-27.854,14.232-39.797,4.707
			c-10.871-8.694-6.387-17.263-12.953-18.606c-4.967-1.015-9.27,21.101,19.68,42.262c1.985,1.448,2.891,0.043,3.989-0.51
			c22.251-11.227,32.155-1.217,23.35,3.116c-19.28,9.456-22.414,8.099-45.223,35.614c-2.005,2.445-1.954,2.233-3.112,9.946
			c-1.683,11.05-3.385,13.075,0.089,14.301c7.832,2.767,6.226-8.224,24.016-10.838c13.179-1.925,34.636,4.862,38.387,19.696
			c7.079,25.935-31.165,33.893-49.883,22.522c-8.249-5.067-5.892-10.34-12.722-10.525c-2.149-0.06-1.362,1.84-1.591,2.917
			c-5.986,28.188,31.66,44.173,31.05,54.134c-0.196,3.267-11.391,5.945-20.302-5.73c-2.378-3.068-3.706-4.059-8.314-2.457
			c-40.017,13.953-50.871,41.511-43.796,41.149c1.516-0.075,3.319,0.74,4.264-1.566c8.264-19.231,39.499-17.308,47.531,0.115
			c4.252,9.417-0.665,19.801-10.186,24.929c-24.614,13.258-34.465-8.183-41.018-7.205c-9.417,1.415,7.029,25.511,39.338,35.412
			c8.734,2.671,14.559,3.351,16.808,7.777c0.769,1.526,2.705,3.237,0.617,4.79c-3.763,2.821-9.273,0.105-10.172-0.831
			c-5.747-5.94-15.329-3.352-38.365-12.846c-24.627-10.067-21.253-22.748-38.259-16.159c-15.075,5.854-31.077,9.082-45.83,16.303
			c-8.755,4.312-4.243-18.859-11.389-18.372c-16.808,1.139-43.178,8.104-50.921,7.884c-10.349-0.325-7.314,15.523-15.05,13.415
			c-1.691-0.466-3.067-1.987-3.065-4.453c0.004-4.259-1.327-8.173-0.227-12.714c3.155-12.896,12.24-9.74,51.274-17.484
			c15.753-3.097,19.009-0.539,19.022-3.555c0.015-3.284-10.475-0.409-36.14-3.397c-16.013-1.885-35.426,1.782-35.749-16.921
			c-0.122-7.104-0.824-10.529,2.838-11.682c3.235-1.017,4.826,1.219,6.42,4.819c4.767,10.765,13.28,6.374,57.684,9.35
			c7.765,0.508,3.854-2.965,7.161-22.19c0.571-3.534,3.257-2.802,5.203-2.081c13.617,5.029,27.771,7.248,41.775,10.658
			c31.738,8.048,4.632,0.194,48.979-21.572C197.726,798.596,207.446,795.976,217.76,792.348z"/>
	</g>
	<g>
		<path d="M296.951,1120.993c-54.083-7.804-8.202-35.852-86.309,28.508c-22.935,18.967-17.332,19.758-21.956,16.886
			c-11.538-7.176-11.198-15.565-15.905-13.115c-60.117,31.306-60.36,28.365-57.246,37.825c0.878,2.669,0.815,5.275,1.537,7.919
			c0.692,2.572-0.867,4.208-3.059,4.88c-2.867,0.878-2.507,0.125-15.391-24.762c-1.685-3.198-0.699-4.818,1.39-5.965
			c31.067-17.123,57.877-36.982,60.395-38.621c3.962-2.578,0.003-4.798-0.968-8.883c-0.841-3.547-3.483-3.588-5.48-2.841
			c-11.43,4.316-23.614,6.089-34.936,10.764c-10.387,4.315-21.315,7.332-32.067,10.761c-4.037,1.292-4.676-2.5-8.305-11.045
			c-7.022-16.994-8.205-18.073-5.593-19.676c4.47-2.743,6.988,2.657,8.442,4.288c9.76,11.021,1.903,10.902,66.809-16.266
			c7.019-2.92-0.539-4.998,1.243-20.728c0.545-5.125-0.39-2.595,40.621-7.527c53.74-6.473,38.695-0.166,44.533-32.148
			c3.049-16.484,7.537-23.484,8.98-29.853c-5.218-1.271-20.274,0.888-40.005-7.896c-11.347-5.095,7.12-7.428-133.588,32.411
			c-9.62,2.709-7.397,18.766-12.98,18.793c-3.551,0.015-4.153-3.609-5.005-6.66c-1.04-3.792-2.705-7.555-2.979-11.384
			c-0.521-6.277,5.851-15.846,11.196-17.338c6.53-1.864,57.953-22.899,62.2-24.987c-3.903-2.82-40.268-1.514-69.295-4.626
			c-19.843-2.167-18.223-10.966-20.688-23.529c-0.364-1.874-0.874-3.947,1.083-4.695c4.035-1.548,4.28,0.473,6.446,3.311
			c15.184,20.039,112.113,2.154,137.175-3.557c6.388-1.455,4.437-3.509,16.413-19.325c17.597-23.229,40.985-39.541,48.199-36.352
			c7.025,3.112-0.57,3.542-22.417,26.873c-7.451,8-18.026,19.5-15.689,27.97c0.301,1.088-0.195,3.068,2.109,2.633
			c1.715-0.322,3.444-0.289,4.176-2.694c6.937-22.839,46.258-30.801,50.855,1.583c3.031,21.363-27.882,34.615-46.722,17.768
			c-1.74-1.553-3.193-1.764-5.243-0.972c-5.349,2.068,4.41,22.846,39.421,24.937c2.444,0.144,1.756-0.606,5.45-6.61
			c9.95-15.775,24.376-14.695,18.929-5.944c-11.449,19.077-13.575,18.636-17.93,47.593c-1.302,9.378-1.379,9.266-0.228,11.953
			c6.923,15.69,6.322,17.698,9.937,16.851c8.099-1.888,0.739-10.329,14.36-22.084c26.976-23.416,64.23-1.63,44.028,24.829
			c-7.068,9.248-19.434,16.659-30.915,16.884c-9.65,0.205-10.595-5.482-16.428-1.958c-1.84,1.11-0.145,2.279,0.249,3.306
			c10.337,26.961,50.424,19.997,55.349,28.682c1.589,2.837-6.365,11.156-20.173,6.177c-3.657-1.288-5.31-1.402-8.32,2.435
			c-25.254,32.235-21.119,62.965-14.562,58.247c1.234-0.885,3.187-1.174,2.742-3.63c-3.455-18.268,22.315-37.004,40.005-25.653
			c15.275,10.209,6.093,32.117-7.212,39.246c-13.168,7.058-21.553-0.717-26.22,3.384c-5.061,4.456,7.544,13.656,35.431,11.522
			c20.161-1.589,28.785-9.505,35.155-5.661c1.46,0.878,3.999,1.282,3.076,3.73c-1.636,4.415-7.736,5.113-8.981,4.798
			c-7.986-1.907-27.914,10.872-51.33,11.239c-14.197,0.279-19.685-6.568-28.747,5.894c-9.698,13.312-21.583,24.965-29.704,38.572
			c-1.395,2.346-3.63,2.669-5.979,0.354c-3.062-3.042-6.399-5.846-9.236-9.109c-4.935-5.677-32.981,27.75-42.797,33.697
			c-8.842,5.315,2.204,17.064-5.42,19.471c-1.671,0.523-3.644-0.016-4.966-2.099c-2.265-3.574-5.617-6.352-7.117-10.543
			c-4.296-12.599,5.049-14.86,33.657-42.536c11.477-11.073,15.691-10.756,14.02-13.272c-1.807-2.725-9.185,5.416-32.217,16.727
			c-14.042,6.874-28.93,20.755-39.234,5.119c-3.999-6.01-6.371-8.466-3.935-11.399c2.169-2.61,4.717-1.584,8.004,0.592
			c9.825,6.502,14.592-1.794,53.552-23.359c6.629-3.682,1.685-5.365-4.372-18.749c-2.065-4.815-3.859-7.177,1.614-8.383
			c14.018-3.082,27.223-8.915,40.911-13.657c30.573-10.25,4.409-2.657,29.507-44.633
			C283.476,1137.072,290.236,1129.614,296.951,1120.993z"/>
	</g>
	<g>
		<path d="M541.479,1354.69c-49.771,22.383-26.399-25.334-57.309,70.533c-9.073,28.299-4.038,26.121-9.414,26.11
			c-13.7,0.013-17.869-6.989-20.452-2.493c-36.41,63.413-37.114,55.24-22.243,68.54c1.98,1.771,1.528,4.03,0.052,5.763
			c-1.168,1.371-2.067,1.338-5.535-0.551c-24.042-13.105-24.971-13.819-22.843-17.724c18.759-34.544,27.089-58.557,30.066-65.137
			c1.944-4.304-2.597-4.02-5.629-6.915c-2.634-2.51-4.837-1.187-6.125,0.534c-7.276,9.769-16.588,17.851-23.603,27.901
			c-6.419,9.238-13.998,17.682-21.204,26.375c-1.471,1.778-3.309,1.873-5.868,0.1c-20.947-14.945-23.931-15.169-22.353-18.463
			c2.303-4.747,7.279-1.495,9.371-0.895c14.194,3.936,7.508,8.092,47.497-49.803c4.27-6.153-2.684-3.473-10.134-18.108
			c-2.82-5.561-2.155,0.279,58.411-52.204c6.017-5.217,0.728-5.811-8.175-27.124c-6.375-15.59-6.365-24.225-8.566-30.022
			c-5.071,1.758-16.388,11.596-37.969,14.995c-5.47,0.826-8.158,0.779-10.61,3.581c-97.498,111.301-88.198,95.189-84.762,111.436
			c0.54,2.653,2.402,5.536-0.225,7.247c-2.983,1.938-5.459-0.76-7.835-2.844c-6.502-5.775-11.522-8.048-11.436-18.573
			c0.053-4.038,1.054-7.952,2.888-10.035c2.513-2.868,34.107-46.877,38.779-54.639c-4.443-0.214-0.058-0.717-43.327,24.05
			c-24.758,14.138-24.325,13.16-32.399,13.083c-4.172-0.054-5.532-1.741-15.109-12.055c-1.305-1.389-2.834-2.872-1.608-4.546
			c2.551-3.484,3.869-1.938,7.188-0.696c23.308,8.721,95.942-59.486,113.334-77.257c6.291-6.428-0.407-12.268,5.896-44.025
			c7.919-40.743,23.903-42.516,21.516-34.266c-21.695,75.204,2.012,67.507-0.274,59.738c-5.688-18.844,11.007-32.862,20.359-35.397
			c16.341-4.312,37.531,16.858,23.736,35.598c-8.004,10.868-16.268,16.19-30.144,13.86c-2.284-0.389-3.614,0.213-4.912,1.991
			c-3.317,4.546,15.983,16.829,46.623-0.244c2.139-1.195,1.246-2.615,1.204-3.851c-0.884-25.255,12.377-29.659,12.571-19.958
			c0.344,20.464-0.696,24.144,8.202,44.444c7.721,17.279,3.839,12.141,21.941,24.657c3.559,2.511,7.076-2.47,5.923-5.092
			c-6.62-14.797-1.002-29.579,11.258-40.64c16.889-15.237,39.668-7.345,37.734,16.298c-1.093,13.33-9.311,31.531-28.233,34.689
			c-2.443,0.386-2.886,1.971-3.608,3.436c-0.961,1.942,1.1,2.01,1.992,2.652c18.592,13.698,36.805,0.154,55.037-5.262
			c6.369-1.832,10.046-1.252,7.23,5.549c-5.652,13.642-18.485,5.649-19.532,16.629c-3.857,40.957,16.222,64.25,19.127,56.92
			c0.565-1.42,2.043-2.693,0.355-4.546c-7.422-8.229-8.467-26.464,5.258-37.262c29.446-23.129,48.883,26.915,16.501,42.745
			c-18.018,8.833,0.22,17.565,28.948-4.173c16.018-12.243,19.009-23.46,26.505-23.797c1.705-0.066,4.061-1.118,4.609,1.427
			c1.007,4.596-3.741,8.484-4.964,8.913c-9.05,3.23-21.584,32.967-48.095,42.834c-7.888,2.931-9.636,8.196-10.024,14.904
			c-0.92,16.145-4.613,32.046-4.149,48.467c0.085,2.754-1.603,4.177-4.836,3.504c-4.226-0.9-8.586-1.366-12.718-2.642
			c-7.166-2.221-12.812,41.25-17.833,51.486c-4.593,9.298,11.122,13.102,5.992,19.27c-2.317,2.771-4.806,1.024-11.314-1.191
			c-10.489-3.791-12.117-9.992-10.346-18.734c0.274-1.338,8.641-34.066,15.055-54.092c0.303-0.944,1.264-2.049-0.431-2.827
			c-1.746-0.802-1.883,0.643-2.348,1.546c-32.231,62.442-30.139,61.575-52.24,52.696c-4.602-1.848-5.701-8.624,3.77-8.564
			c11.818,0.125,11.344-9.423,32.518-48.598c3.517-6.532-1.744-5.87-10.322-11.156c-8.185-5.193-10.693-6.132-6.658-10.181
			c10.251-10.294,18.186-22.301,27.07-33.528c23.9-29.72-5.821-0.724,2.335-76.343
			C540.912,1360.109,541.216,1357.426,541.479,1354.69z"/>
	</g>
	<g>
		<path d="M873.416,1418.898c-28.216,43.406-34.272,0.295-16.225,67.25c8.786,33.122,10.112,39.275,14.194,46.99
			c1.998,3.758-13.144,8.048-17.442,8.974c-4.354,0.837-3.227-4.729-0.075,64.984c0.183,4.136,3.767,5.599,7.603,5.976
			c2.786,0.297,5.123,1.426,7.821,1.854c2.619,0.416,3.458,2.559,3.154,4.816c-0.463,3.429-2.766,2.087-28.854,3.703
			c-3.598,0.218-4.657-1.347-4.83-3.723c-2.654-35.781-9.484-67.946-9.943-71.048c-0.694-4.673-4.354-1.979-8.464-2.777
			c-3.569-0.679-4.704,1.666-4.854,3.79c-0.827,12.151-4.274,23.979-4.728,36.226c-0.393,11.242-2.188,22.441-3.534,33.649
			c-0.273,2.29-1.762,3.362-4.866,3.251c-27.408-0.943-28.34-0.175-28.738-3.361c-0.629-5.119,5.027-5.163,7.383-5.887
			c10.913-3.368,10.867-3.388,11.182-13.165c1.979-62.155,3.308-58.084-1.981-58.976c-5.866-0.989-18.569-4.065-16.462-9.969
			c8.33-23.312,15.738-47.087,22.653-70.7c2.935-10.043-8.274-4.952-32.988-27.453c-5.808-5.299-8.711-8.935-12.073-11.494
			c-4.04,5.134-4.199,11.615-16.194,25.512c-8.821,10.235-13.735,10.888-14.551,16.438
			c-21.633,146.532-22.476,127.549-10.821,139.567c1.891,1.954,5.018,3.396,3.738,6.25c-1.455,3.237-4.998,2.281-8.124,1.791
			c-3.877-0.626-7.984-0.682-11.586-1.985c-5.924-2.132-11.991-11.903-11.138-17.387c0.551-3.727,3.259-57.911,2.986-66.947
			c-3.823,2.176-4.218,5.677-5.625,8.536c-36.267,73.381-33.429,67.452-57.232,61.723c-1.857-0.447-3.953-0.851-3.831-2.919
			c0.257-4.304,2.21-3.733,5.686-4.508c24.399-5.463,48.456-101.724,53.51-126.348c1.326-6.456-1.413-5.558-10.804-22.936
			c-13.777-25.493-19.061-53.635-13.138-58.913c4.649-4.157,3.628-0.453,10.18,18.341c7.098,20.257,14.613,37.546,23.965,39.041
			c1.084,0.174,2.71,1.453,3.274-0.853c0.418-1.703,1.161-3.252-0.731-4.891c-16.62-14.671-8.22-41.463,5.893-46.02
			c10.087-3.316,32.535,0.951,31.251,22.278c-0.855,13.793-4.979,22.324-17.808,27.959c-2.134,0.937-2.927,2.172-3.054,4.366
			c-0.329,5.709,22.571,5.534,39.038-25.552c1.151-2.178-0.372-2.862-1.078-3.863c-14.377-20.078-5.844-31.851-0.262-23.531
			c10.459,15.159,10.786,18.06,23.23,27.423c21.686,16.115,21.26,13.604,39.6,14.26c4.351,0.197,4.63-5.887,2.225-7.481
			c-29.391-19.49-9.127-71.156,17.178-58.297c14.099,6.993,19.924,31.357,13.392,46.444c-3.811,8.811-9.41,7.448-8.643,14.167
			c0.244,2.155,2.016,1.086,3.116,1.147c12.04,0.678,21.091-4.801,28.663-14.43c11.228-14.443,21.432-33.009,23.952-19.016
			c2.606,14.486-12.5,14.824-7.457,24.591c9.838,19.024,32.082,42.391,44.155,39.591c1.144-0.265,3.148,0.241,2.696-2.066
			c-0.289-1.491,0.264-3.376-2.157-4.024c-28.179-7.547-18.492-55.76,7.057-49.177c13.12,3.511,25.938,22.675,14.233,42.106
			c-10.302,17.365,9.695,14.375,22.102-19.198c6.846-18.386,3.289-30.119,9.478-34.284c1.405-0.955,2.808-3.155,4.643-1.312
			c3.324,3.306,1.434,9.171,0.639,10.202c-5.801,7.708-0.553,39.446-17.356,62.032c-5.074,6.652-3.708,12.005-0.402,17.901
			c7.968,14.196,13.424,29.486,22.676,43.036c5.477,7.971-17.988,7.314-16.578,13.902c3.521,16.48,14.171,41.552,15.055,49.249
			c1.169,10.311,16.445,5.128,15.456,13.031c-0.22,1.745-1.531,3.334-3.972,3.7c-4.201,0.56-8.144,2.39-12.589,1.995
			c-13.211-1.174-11.397-10.701-24.633-48.3c-5.305-15.138-3.236-18.743-6.221-18.303c-3.232,0.475,1.09,10.654,1.765,36.297
			c0.37,16.232,6.863,34.651-11.735,37.78c-2.221,0.369-4.454,0.687-6.666,1.094c-4.981,0.868-9.374-4.427-1.452-9.245
			c10.004-6.274,4.447-14.134,1.112-58.503c-0.53-6.906-4.604-4.406-10.57-3.982c-14.41,0.971-16.374,0.515-15.233-4.773
			c3.061-14.224,3.253-28.627,4.664-42.89c3.982-36.788-6.293-0.838-35.802-58.499
			C878.192,1428.567,875.932,1423.774,873.416,1418.898z"/>
	</g>
	<g>
		<path d="M1187.268,1293.681c-0.355,54.48-33.902,13.62,40.47,81.365c22.047,20.037,22.03,14.356,19.849,19.35
			c-10.93,25.61-26.647-4.993,25.252,68.016c2.399,3.382,6.154,2.588,9.613,0.865c2.512-1.251,5.097-1.561,7.606-2.654
			c2.436-1.061,4.306,0.288,5.272,2.347c0.764,1.63,0.361,2.432-2.8,4.794c-21.344,15.266-22.482,17.555-25.592,13.424
			c-21.547-28.542-44.734-51.891-46.839-54.294c-3.115-3.553-4.743,0.688-8.641,2.237c-3.386,1.343-3.048,3.966-2.023,5.836
			c5.881,10.664,9.38,22.475,15.625,33.018c5.754,9.666,10.302,20.054,15.233,30.208c1.01,2.074,0.333,3.782-2.347,5.37
			c-22.277,12.895-23.704,15.553-26.053,12.745c-3.299-3.966,1.441-7.064,3.047-8.94c9.487-11.255,10.496-3.458-25.663-63.818
			c-3.858-6.471-4.487,1.088-20.685,1.73c-6.199,0.245-0.641,2.141-23.349-74.775c-1.786-6.04-4.916-4.537-12.562-4.019
			c-27.696,1.699-38.808-3.901-46.373-4.419c-0.626,6.623,2.752,11.59,0.153,30.2c-1.877,13.423-5.644,16.65-3.349,21.726
			c60.937,135.015,49.988,119.527,66.269,123.289c2.645,0.614,6.051,0.124,6.516,3.222c0.525,3.515-2.968,4.64-5.86,5.929
			c-3.01,1.332-6.871,3.628-10.846,4.554c-6.131,1.426-16.489-3.456-18.749-8.57c-1.581-3.507-28.543-50.534-33.654-57.988
			c-2.035,3.916-0.708-0.775,3.887,49.422c3.673,40.747-0.288,37.17-18.85,43.693c-1.813,0.6-3.806,1.364-4.821-0.449
			c-2.112-3.773-0.149-4.319,2.373-6.805c17.846-17.855-18.992-136.779-28.247-140.705c-37.619-16.128-61.613-42.134-59.286-50.541
			c1.679-6.042,2.695-2.389,18.471,9.941c14.382,11.211,32.055,24.003,41.243,19.909c1.031-0.46,3.059-0.261,2.297-2.48
			c-2.279-6.661-4.192-1.359-13.998-7.576c-10.516-6.616-20.839-30.315-5.358-41.612c27.185-19.678,50.058,15.279,34.67,38.626
			c-1.304,1.905-1.309,3.362-0.229,5.283c2.9,5.15,22.041-8.036,19.054-42.554c-0.21-2.458-1.857-2.204-2.99-2.662
			c-23.127-9.492-22.004-23.647-12.948-19.703c18.211,7.91,20.351,9.525,34.342,10.546c26.163,2.162,27.219-1.21,35.637-6.205
			c5.511-3.366,8.107-3.948,6.858-7.138c-2.421-6.202-3.835-1.472-14.711-5.528c-17.932-6.844-28.987-33.537-19.444-47.444
			c15.316-22.323,46.168,1.682,49.686,22.969c1.567,9.459-3.898,11.307,0.407,16.561c1.36,1.663,2.275-0.186,3.235-0.724
			c25.334-14.216,12.586-53.093,20.559-58.887c2.649-2.033,8.602,4.141,9.51,10.559c1.287,9.127-4.485,12.082,3.048,16.418
			c37.561,21.539,64.559,11.157,59.74,6.145c-4.458-4.65-2.044-1.066-10.233-1.23c-19.349-0.348-31.288-22.675-24.812-36.936
			c3.954-8.465,14.23-12.893,25.521-8.607c26.04,9.81,16.561,31.503,21.417,35.659c5.024,4.289,12.489-9.104,6.393-36.709
			c-4.431-19.724-13.48-27.175-10.581-34.004c0.661-1.571,0.7-4.143,3.252-3.577c4.616,1.007,6.148,6.927,6.022,8.214
			c-0.589,6.415,3.114,8.527,10.916,25.975c16.663,37.253-0.71,41.309,17.381,50.879c14.316,7.556,27.281,17.557,42.39,23.949
			c2.515,1.045,3.165,3.224,1.186,5.857c-2.574,3.464-4.873,7.168-7.699,10.441c-4.976,5.799,31.902,28.432,39.414,37.595
			c6.514,8.001,16.566-4.604,20.031,2.603c0.755,1.58,0.502,3.61-1.37,5.216c-3.22,2.744-5.471,6.477-9.431,8.53
			c-11.85,6.042-15.416-2.891-46.858-27.287c-12.575-9.785-12.87-14.01-15.122-11.997c-2.485,2.125,6.639,8.298,21.113,29.511
			c6.914,10.161,17.171,19.325,16.11,28.675c-0.744,6.484-5.895,9.555-10.514,13.919c-3.654,3.452-10.221,1.467-6.23-6.982
			c5.032-10.657-3.869-14.208-30.719-49.699c-4.698-6.189-4.79-0.971-21.48,9.137c-3.046,1.886-4.252-0.623-4.982-2.566
			c-5.113-13.579-12.723-25.745-19.317-38.552c-14.507-28.851-3.564-3.95-48.38-22.885
			C1205.094,1304.724,1196.756,1299.099,1187.268,1293.681z"/>
	</g>
	<g>
		<path d="M1383.819,1018.531c27.845,43.638-13.977,31.246,54.483,42.628c33.722,5.729,39.918,7.082,48.637,6.561
			c4.239-0.262,1.896,15.311,0.917,19.608c-1.039,4.315-5.667,0.968,59.096,27.043c3.739,1.506,6.601-0.978,8.614-4.451
			c1.425-2.419,3.423-4.083,4.932-6.369c1.465-2.218,3.763-2.094,5.691-0.881c2.199,1.386,1.515,2.524-2.911,13.592
			c-6.273,15.019-6.073,19.015-11.121,17.14c-33.703-12.465-65.615-19.542-68.767-20.453c-4.537-1.309-3.6,3.15-6.024,6.57
			c-2.171,2.938-0.496,4.955,1.376,5.977c10.708,5.81,20.041,13.879,30.988,19.39c10.059,5.037,19.5,11.337,29.134,17.232
			c1.97,1.203,2.328,3.011,0.942,5.803c-11.835,22.879-11.648,25.858-15.121,24.772c-5.022-1.6-2.53-7.005-2.217-9.155
			c1.483-11.357,1.418-11.338-7.33-15.693c-70.307-34.968-43.221-27.104-65.206-11.617c-4.207,2.963-1.776,1.967-32.227-25.787
			c-39.811-36.278-25.651-29.29-53.429-12.648c-10.934,6.314-27.937,12.416-28.502,12.729c2.399,4.643,13.885,14.762,20.241,35.454
			c3.518,11.896-10.331-0.554,111.88,79.745c8.425,5.54,19.011-6.677,22.701-2.465c2.343,2.679,0.026,5.518-1.698,8.17
			c-2.199,3.252-4.054,6.902-6.703,9.653c-4.55,4.679-15.843,5.869-20.426,2.869c-3.233-2.105-51.246-27.121-59.575-30.638
			c0.452,4.751,25.858,32.364,41.915,55.394c11.138,16.06,3.801,20.843-4.244,30.98c-1.189,1.49-2.439,3.215-4.27,2.239
			c-3.81-2.032-2.467-3.557-1.709-7.02c5.311-24.434-71.817-86.085-92.516-101.258c-5.326-3.904-6.08-1.09-25.358,0.264
			c-56.144,3.476-66.995-17.862-56.021-16.322c64.54,8.911,66.25-4.959,63.925-6.801c-5.538-4.396-4.397,1.251-15.877,1.188
			c-10.96-0.008-23.096-9.119-26.802-17.713c-5.596-12.874,6.089-30.84,20.79-31.346c8.404-0.287,27.002,8.254,28.894,25.666
			c0.578,5.606-0.863,7.638,2.847,9.608c5.071,2.693,14.6-17.921-6.869-46.11c-1.487-1.948-2.765-0.862-3.98-0.645
			c-24.841,4.464-31.097-8.042-21.535-9.61c17.405-2.914,21.566-2.459,34.628-9.638c25.984-14.285,20.516-13.078,29.469-29.972
			c0.88-1.737,0.607-3.089-0.881-4.169c-4.201-3.055-3.919-0.89-10.099,1.665c-27.949,11.316-62.585-24.384-40.825-42.438
			c12.556-10.473,45.898-5.823,53.178,17.794c0.714,2.354,2.361,2.573,3.908,3.077c2.038,0.665,1.867-1.36,2.37-2.336
			c8.905-17.02-0.418-30.686-7.589-43.316c-6.237-10.99-11.954-21.09-1.083-18.328c14.266,3.627,8.312,17.492,19.291,16.954
			c42.296-2.103,60.497-25.437,53.557-27.086c-1.477-0.353-2.963-1.637-4.558,0.298c-16.227,19.617-50.93-0.301-45.078-20.586
			c4.365-15.534,32.793-23.065,47.426-1.724c0.81,1.185,1.414,2.617,2.268,3.813c1.77,2.492,6.015,3.859,6.931,0.774
			c3.793-13.445-18.862-35.433-30.867-43.318c-7.849-5.118-13.123-7.333-13.938-12.154c-0.321-1.681-1.714-3.867,0.718-4.776
			c4.389-1.659,8.94,2.491,9.548,3.642c4.008,7.432,14.046,7.741,33.26,23.051c17.348,13.894,14.749,21.934,23.072,25.293
			c4.621,1.874,5.35,0.647,33.387,0.017c24.967-0.577,28.861-4.926,28.453,2.334c-0.258,4.584-0.062,7.955-0.814,12.958
			c-0.503,3.287-1.934,4.279,31.037,7.364c28.031,2.642,26.521,6.06,32.761-1.797c2.45-3.098,4.527-6.088,7.95-3.983
			c1.496,0.922,2.399,2.771,1.717,5.144c-5.615,19.655,2.403,24.805-74.044,11.996c-0.978-0.165-2.211-0.957-2.73,0.834
			c-0.535,1.845,0.912,1.773,1.873,2.104c66.39,22.931,65.224,20.926,59.673,44.157c-1.199,4.813-7.847,6.819-9.016-2.504
			c-1.607-11.727-10.979-9.885-52.795-25.227c-6.861-2.505-4.545,0.787-13.097,19.334c-1.517,3.245-3.893,1.783-5.563,0.541
			c-11.674-8.675-24.703-14.811-37.098-21.997c-31.377-18.605-4.117,5.44-68.08,8.355
			C1394.601,1018.198,1389.296,1018.263,1383.819,1018.531z"/>
	</g>
	<g>
		<path d="M1400.241,680.757c49.679,22.708-2.217,36.728,90.85-2.88c27.42-11.716,22.284-14.033,25.858-9.974
			c18.365,20.851-14.262,21.881,72.338,5.436c4.074-0.769,4.949-4.524,4.858-8.398c-0.045-2.817,0.708-5.29,0.729-8.024
			c0.02-2.654,2.017-3.79,4.297-3.81c3.554-0.017,2.509,2.752,7.814,28.104c0.68,3.549-0.732,4.823-3.061,5.332
			c-35.089,7.707-65.734,18.977-68.879,19.912c-4.533,1.349-1.262,4.584-1.566,8.786c-0.234,3.644,2.278,4.434,4.404,4.283
			c12.154-0.895,24.382,0.852,36.573-0.424c11.188-1.195,22.543-0.994,33.84-1.238c2.299-0.051,3.623,1.271,3.894,4.374
			c2.371,25.456,4.186,28.029,0.662,28.982c-7.483,2.009-6.013-11.391-12.314-15.39c-2.466-1.539-1.29-1.2-63.229,5.59
			c-7.408,0.796-0.852,4.168-7.052,19.512c-2.38,5.89,0.492,1.248-77.703-9.983c-8.22-1.179-5.02,4.283-15.15,23.938
			c-5.852,11.317-16.873,25.747-17.087,26.148c4.634,2.671,19.554,4.826,36.196,18.887c9.532,8.104-9.19,5.132,137.258,6.462
			c10.086,0.106,12.377-15.86,17.741-14.325c3.419,0.982,3.003,4.612,2.986,7.766c-0.028,3.914,0.33,7.975-0.401,11.713
			c-1.227,6.133-9.907,13.485-15.593,13.445c-3.812-0.018-57.764,4.96-66.708,6.521c2.724,3.472,6.244,3.367,9.281,4.352
			c76.849,25.293,71.469,22.837,69.261,47.794c-0.205,1.896-0.337,4.022-2.407,4.195c-4.309,0.358-3.992-1.651-5.209-4.971
			c-8.899-23.467-107.46-33.426-132.711-34.932c-6.381-0.381-5.162,1.953-21.168,13.97c-22.332,16.896-50.255,26.642-56.453,21.445
			c-4.788-4.023-1.15-3.38,16.698-12.715c16.744-8.76,35.138-19.376,35.212-29.324c0.008-1.131,1.027-2.895-1.307-3.122
			c-7.005-0.689-2.971,3.253-12.688,9.611c-8.908,5.839-24.225,4.959-32.109-0.351c-11.33-7.655-9.232-24.204-6.551-29.31
			c8.179-16.068,33.727-16.36,45.178-2.427c3.585,4.363,3.395,6.897,7.621,6.54c5.545-0.47,2.653-22.957-30.745-35.103
			c-2.304-0.836-2.792,0.772-3.698,1.615c-18.496,17.238-30.524,10.106-23.313,3.58c16.868-15.364,19.357-14.717,33.438-46.975
			c2.038-4.718,0.56-2.67-0.896-21.106c-0.46-4.324-6.533-3.731-7.742-1.142c-11.161,24.338-47.923,22.924-57.654,7.037
			c-15.529-25.131,28.375-45.01,47.126-33.053c6.179,3.955,4.661,5.352,9.659,4.044c2.103-0.548,1.102-14.711-10.404-24.483
			c-12.643-10.658-45.834-20.52-29.452-25.974c6.806-2.266,12.049,0.485,16.765,3.823c4.308,3.143,5.452,2.828,13.658-3.752
			c30.858-24.948,31.303-49.99,25.426-47.931c-1.434,0.5-3.384,0.224-3.665,2.708c-2.653,24.692-42.822,27.786-49.006,6.994
			c-2.293-7.279,0.717-14.995,6.166-20.444c19.754-19.671,35.367-1.912,41.349-4.687c5.514-2.566-1.693-14.889-30.73-21.033
			c-19.771-4.154-30.278,1.037-35.302-4.461c-1.14-1.257-3.455-2.36-1.924-4.427c2.781-3.758,8.885-2.74,10.004-2.094
			c7.979,4.592,39.284-5.063,63.848,8.298c7.306,4.07,12.432,1.94,17.777-2.17c12.849-9.899,27.347-17.55,39.361-28.621
			c2.015-1.864,4.207-1.525,5.852,1.344c2.143,3.761,4.48,7.425,6.282,11.36c3.184,7.034,38.988-17.187,50.572-20.248
			c9.98-2.6,2.753-17.039,10.706-17.177c1.771-0.038,3.517,1.037,4.184,3.419c5.453,19.267,16.501,19.121-55.837,50.078
			c-0.911,0.389-2.38,0.389-1.838,2.173c0.558,1.837,1.735,0.997,2.723,0.756c55.031-13.341,66.534-18.295,72.042-1.498
			c2.195,6.694,3.641,9.98,0.519,12.074c-5.404,3.622-6.77-5.551-13.763-6.916c-7.252-1.39-19.021,4.053-51.739,11.327
			c-7.129,1.598-3.398,3.212-0.556,23.337c0.443,3.56-2.351,3.613-4.412,3.465c-14.471-1.01-28.82,0.88-43.143,1.526
			c-32.073,1.158-4.909,0.963-40.927,34.445c-3.632,3.379-7.68,6.391-11.872,9.346
			C1409.082,674.668,1404.699,677.576,1400.241,680.757z"/>
	</g>
	<g>
		<path d="M1231.446,387.9c51.177-6.997,22.754,25.584,61.392-31.814c19.022-28.003,23.036-33.356,26.156-41.505
			c1.539-4.037,14.515,4.507,18.214,7.288c3.549,2.679-1.441,5.526,49.161-42.579c3.017-2.861,1.691-6.457-0.505-9.635
			c-1.595-2.307-2.269-4.819-3.708-7.146c-1.396-2.258-0.326-4.299,1.576-5.548c1.506-0.988,2.357-0.703,5.144,2.088
			c18.885,19.213,20.302,20.009,16.91,23.415c-25.209,25.38-45.046,51.651-47.119,54.066c-3.075,3.587,1.356,4.593,3.446,8.227
			c1.821,3.15,4.352,2.458,6.05,1.184c9.723-7.335,20.92-12.478,30.471-20.157c8.752-7.067,18.391-13.045,27.743-19.368
			c3.497-2.37,5.685,1.596,8.526,5.09c13.566,17.012,15.666,17.936,13.415,20.432c-3.549,3.917-7.38-0.625-9.265-1.751
			c-9.715-6.042-9.7-5.994-17.295,0.17c-61.326,49.814-42.373,28-37.591,54.533c1.133,6.11,2.258,0.3-70.701,33.736
			c-9.456,4.336,1.567,9.348,0.844,42.894c-0.134,7.809-1.13,12.485-0.799,16.657c6.463-0.316,11.067-4.313,29.87-4.446
			c13.681-0.064,17.285,3.216,21.976,0.224c117.956-75.128,110.715-68.704,111.98-75.01c1.68-8.828-1.051-13.893,2.869-15.074
			c3.405-1.022,5.021,2.268,6.712,4.94c2.132,3.295,4.624,6.535,6.036,10.084c2.285,5.822-1.005,16.725-5.823,19.776
			c-3.187,2.029-45.907,35.438-52.571,41.577c4.581,1.591,38.869-9.914,67.772-15.219c18.684-3.388,20.416,4.417,26.491,16.696
			c0.859,1.705,1.904,3.564,0.257,4.827c-3.43,2.629-4.256,0.769-7.085-1.365c-19.697-15.12-108.373,29.868-130.513,42.295
			c-7.574,4.25-3.474,12.805-18.033,40.577c-6.058,11.557-20.294,32.131-28.158,31.142c-7.58-0.961-0.856-3.028,13.88-32.122
			c4.701-9.196,11.76-23.837,7.092-31.264c-0.606-0.954-0.705-2.986-2.792-1.915c-6.305,3.228-0.71,4.358-5.474,14.931
			c-5.109,11.154-23.668,22.029-36.358,14.49c-13.266-7.823-17.808-27.387-3.643-38.215c10.619-8.099,19.858-11.002,32.823-4.856
			c2.077,1.017,3.522,0.813,5.267-0.53c4.606-3.544-10.642-20.73-44.828-12.819c-2.408,0.561-1.91,2.147-2.212,3.342
			c-6.278,24.509-20.224,25.009-17.671,15.637c5.291-19.35,6.513-21.551,5.54-35.518c-2.231-27.911-2.357-23.409-15.114-39.252
			c-2.701-3.414-7.477,0.37-7.109,3.222c3.266,25.657-22.642,38.574-34.008,39.238c-39.425,2.374-19.895-59.484,16.963-54.99
			c2.47,0.302,3.345-1.1,4.442-2.297c1.453-1.582-0.509-2.224-1.18-3.097c-7.3-9.492-17.591-12.845-29.686-12.159
			c-17.379,0.885-39.073,5.533-30.046-5.647c9.347-11.578,19.339-0.197,23.443-10.466c15.89-39.7,1.962-65.556-2.367-60.012
			c-0.936,1.195-2.731,2.022-1.612,4.25c6.105,12.515-2.352,34.156-23.824,36.367c-21.3,2.19-26.606-25.355-11.468-40.223
			c10.501-10.324,20.923-5.404,24.218-10.592c5.116-8.076-23.902-11.343-52.494,6.528c-7.846,4.897-12.108,8.892-16.904,7.647
			c-1.649-0.429-4.202-0.1-4.004-2.705c0.341-4.708,5.986-7.07,7.278-7.13c8.286-0.431,12.547-9.4,34.817-20.58
			c24.01-12.031,31.116-1.231,37.251-18.333c5.455-15.244,13.5-29.47,17.707-45.36c0.688-2.652,2.729-3.569,5.621-1.989
			c3.798,2.054,7.793,3.802,11.437,6.132c6.449,4.101,23.627-35.605,31.635-44.339c6.999-7.582-6.918-15.738-0.271-20.19
			c1.458-0.972,3.505-1.009,5.362,0.615c3.17,2.803,7.207,4.478,9.78,8.137c7.67,10.868-0.67,15.662-20.368,50.239
			c-7.907,13.837-12.026,14.686-9.746,16.68c2.456,2.156,7.298-7.768,26.23-25.081c11.937-10.887,21.822-27.918,36.218-15.916
			c5.528,4.63,8.499,6.318,6.984,9.815c-1.349,3.112-4.084,2.846-7.854,1.686c-11.268-3.466-13.519,5.842-44.859,37.45
			c-5.439,5.503-0.366,4.825,12.088,19.967c2.301,2.746-0.013,4.295-1.834,5.293c-12.734,6.999-23.676,16.227-35.427,24.572
			c-26.508,18.445-3.458,3.553-15.816,51.139C1239.855,368.689,1235.489,377.716,1231.446,387.9z"/>
	</g>
	<g>
		<path d="M931.27,232.609c42.022-36.539,32.506,17.565,34.961-83.901c0.678-29.803-3.56-26.11,1.618-27.676
			c13.644-4.131,19.089,1.78,20.328-3.417c15.711-65.939,18.086-64.171,8.913-68.101c-2.589-1.103-4.533-2.795-7.01-3.961
			c-2.407-1.121-2.615-3.41-1.69-5.494c1.49-3.354,4.269-0.891,28.831,4.5c3.515,0.849,4.09,2.668,3.59,4.998
			c-7.501,35.136-9.922,67.71-10.372,70.959c-0.646,4.711,3.674,3.039,7.359,5.048c3.221,1.726,4.98-0.232,5.722-2.23
			c4.216-11.433,10.869-21.837,14.755-33.462c3.544-10.678,8.428-20.93,12.884-31.312c1.812-4.227,4.737-1.788,20.14,3.076
			c11.853,3.672,12.551,4.268,12.167,6.601c-0.977,5.882-6.742,2.794-15.411,3.729c-4.969,0.543-5.534,2.301-7.824,9.27
			c-24.364,74.063-20.7,46.676-2.152,66.197c4.379,4.609,1.422-0.181-41.281,66.587c-3.656,5.711-0.204,6.139,9.085,16.275
			c16.701,18.383,18.53,27.89,23.074,33.794c4.077-2.915,13.057-16.177,32.186-25.083c11.319-5.181,1.051,10.031,62.976-122.111
			c4.263-9.062-9.279-17.936-5.686-22.131c2.313-2.689,5.48-0.851,8.328,0.534c3.536,1.715,7.422,3.02,10.529,5.247
			c5.139,3.599,8.121,14.824,5.757,19.823c-1.605,3.461-19.536,54.578-21.829,63.319c4.367-1.062,0.304,0.632,34.827-35.243
			c18.655-19.342,24.595-26.415,38.293-18.497c8.717,5.198,10.704,5.79,9.868,8.103c-2.207,6.099-4.984,0.527-13.58,3.713
			c-23.44,8.689-67.717,81.486-80.228,104.949c-4.307,8.076,3.78,11.124,6.705,43.881c3.702,42.199-11.025,47.147-11.05,38.932
			c-0.289-65.006-14.284-64.884-15.791-62.295c-2.755,4.722-0.679,3.263,1.985,10.043c6.571,17.265-9.6,49.24-37.166,32.232
			c-17.926-11.172-7.964-44.058,17.159-46.928c2.303-0.276,3.411-1.23,4.156-3.301c1.928-5.359-19.829-11.906-44.646,13.396
			c-1.716,1.753-0.458,2.858-0.07,4.027c7.958,23.866-3.481,31.919-6.437,22.677c-6.323-19.567-5.123-21.831-20.353-40.302
			c-12.303-15.195-8.605-10.518-27.966-17.477c-4.121-1.37-6.1,4.392-4.242,6.574c19.417,22.423-2.675,61.967-26.232,54.799
			c-18.262-5.778-18.494-37.259-6.345-51.975c6.575-7.966,11.028-4.142,12.233-11.132c0.367-2.12-1.62-1.626-2.65-2.014
			c-13.932-5.411-25.411,1.077-36.598,9.661c-13.884,10.853-24.45,19.791-23.182,7.768c1.553-14.712,16.099-10.74,14.029-21.557
			c-3.591-18.499-18.234-49.685-31.331-50.34c-1.174-0.059-2.958-1.095-3.169,1.246c-0.139,1.512-1.198,3.172,0.948,4.458
			c11.678,7.048,16.961,29.381-0.3,43.439c-10.5,8.558-24.56,3.716-29.72-10.028c-9.719-26.18,12.931-33.124,12.885-39.567
			c-0.057-6.91-15.581-2.857-31.917,19.239c-12.031,16.282-11.657,27.958-18.769,30.271c-1.623,0.527-3.595,2.18-4.842-0.121
			c-2.268-4.15,1.207-9.182,2.263-9.928c5.136-3.676,4.313-7.55,12.482-25.269c16.865-36.496,31.648-26.581,27.035-46.466
			c-3.742-16.193-4.675-32.404-9.704-47.696c-1.413-4.288,1.984-5.761,16.572-5.766c7.638,0.011,0.555-42.739,2.548-54.414
			c1.77-10.159-14.327-9.553-11.158-16.879c0.698-1.608,2.396-2.738,4.833-2.368c19.773,3.013,24.177-7.136,22.372,71.563
			c-0.024,0.99-0.632,2.328,1.214,2.573c1.901,0.253,1.624-1.167,1.815-2.165c10.52-54.931,10.75-68.157,28.445-66.192
			c7.153,0.731,10.592,0.885,11.192,4.517c0.553,3.355-1.889,4.595-5.685,5.633c-11.321,3.051-8.236,12.409-17.403,55.825
			c-1.492,7.125,1.393,4.368,20.998,10.171c3.43,1.02,2.317,3.624,1.331,5.426c-6.913,12.804-11.124,26.606-16.466,39.92
			c-14.256,34.616,5.942,2.351,18.024,66.177C929.384,222.032,930.219,227.229,931.27,232.609z"/>
	</g>
</g>
</svg>
